<svg viewBox="0 0 24 24" xmlns="http://www.w3.org/2000/svg">
	<g id="Ubuntu">
		<circle cx="2.5" cy="12" r="2.5" style="fill:#303c42"/>
		<circle cx="19.5" cy="2.5" r="2.5" style="fill:#303c42"/>
		<circle cx="19.5" cy="21.5" r="2.5" style="fill:#303c42"/>
		<path d="M10.76,15.8a5,5,0,0,1,0-7.6.5.5,0,0,0,.11-.63l-2-3.49a.5.5,0,0,0-.33-.24.5.5,0,0,0-.4.09A10,10,0,0,0,4.55,8.76a.5.5,0,0,0,.15.55,3.45,3.45,0,0,1,0,5.38.5.5,0,0,0-.15.55,10,10,0,0,0,3.57,4.84.5.5,0,0,0,.29.1h.1a.5.5,0,0,0,.33-.24l2-3.49A.5.5,0,0,0,10.76,15.8Z" style="fill:#303c42"/>
		<path d="M11.73,7.07a.5.5,0,0,0,.6.22A5,5,0,0,1,19,11.09a.5.5,0,0,0,.49.41h4a.5.5,0,0,0,.5-.55,9.88,9.88,0,0,0-2.22-5.26.5.5,0,0,0-.62-.12A3.45,3.45,0,0,1,19.5,6,3.48,3.48,0,0,1,16,2.61a.5.5,0,0,0-.42-.48,9.81,9.81,0,0,0-5.65.73.5.5,0,0,0-.23.71Z" style="fill:#303c42"/>
		<path d="M23.5,12.5h-4a.5.5,0,0,0-.49.41,5,5,0,0,1-6.64,3.8.5.5,0,0,0-.6.22l-2,3.5a.5.5,0,0,0,.23.71,9.81,9.81,0,0,0,5.65.73.5.5,0,0,0,.42-.48,3.46,3.46,0,0,1,5.14-3,.5.5,0,0,0,.62-.12A9.88,9.88,0,0,0,24,13.05a.5.5,0,0,0-.5-.55Z" style="fill:#303c42"/>
	</g>
</svg>